<?xml version="1.0"?>
<svg version="1.1" xmlns="http://www.w3.org/2000/svg" width="400" height="200" style="border: dashed 2px #aaa"><path fill="#e52727" d="M31.23,109.66q-1.8,0-3.03-0.825t-1.23-2.085q0-1.59,2.07-3.18q0.36-0.27,0.54-0.27t0.18,0.12q0,0.3-0.48,0.48q-1.68,1.35-1.68,2.73q0,0.99,0.9,1.665t2.25,0.675q2.94,0,5.55-2.82q1.35-1.47,1.35-3.39t-1.44-2.85q-1.2-0.84-3.24-0.84q-2.94,0-5.91,1.47q-3.66,1.77-6.615,5.505t-2.955,7.185q0,2.73,1.86,4.215t4.62,1.485q3.15,0,6.18-1.53q2.31-1.2,3.99-3.06q0.48-0.54,0.75-0.54q0.18,0,0.18,0.315t-0.33,0.645q-1.59,1.68-4.59,3.24q-3.69,1.95-7.425,1.95t-5.565-2.46q-1.23-1.62-1.23-3.87q0-0.99,0.24-2.13q0.81-3.84,4.26-7.47q2.49-2.61,5.91-4.065t6.48-1.455q1.62,0,2.82,0.39q3.27,1.02,3.27,4.11q0,1.89-1.11,3.27q-2.76,3.39-6.57,3.39z M48.0651,109.03l0.42-0.09q0.33,0,0.63,0.27t0.3,0.42t-1.86,2.895t-1.86,3.825q0,0.09,0.03,0.18q0.15,0.69,0.66,0.69q1.56,0,5.7-5.16q0.09-0.12,0.21-0.12t0.12,0.225t-0.27,0.585q-3.84,5.13-5.85,5.13q-0.27,0-0.51-0.09q-1.32-0.51-1.32-1.98q0-0.51,0.12-1.02l-1.86,1.8q-1.77,1.56-2.565,1.56t-1.515-0.51q-0.81-0.6-0.81-1.59q0-2.19,3.06-5.235t5.61-3.045q0.99,0,1.32,0.69q0.09,0.24,0.15,0.405t0.09,0.165z M39.0951,116.41q0,1.08,0.75,1.08q1.74,0,4.74-3.81l3.18-4.38q-0.24-0.42-0.78-0.42q-1.83,0-4.86,2.835t-3.03,4.695z M57.9102,118.15q-2.25,0-2.25-2.49q0-1.26,0.66-2.76t1.44-2.52q-0.15,0.03-0.39,0.03q-0.72,0-1.2-1.02l-2.22,2.88q-1.86,2.31-2.16,2.31q-0.15,0-0.15-0.12q0-0.3,0.51-0.87q2.61-3.03,3.69-5.13q0.69-2.61,1.74-2.61q0.69,0,0.69,0.6t-0.75,1.53l-0.72,0.96q0,0.63,0.93,0.63q0.54,0,1.2-0.39l0.78-0.48q0.06-0.03,0.3-0.03t0.51,0.3t0.18,0.54l-2.07,2.61q-1.92,2.46-1.92,3.885t1.32,1.425q1.38,0,3.39-1.47q1.2-0.87,2.19-1.95q0.93-1.08,1.02-1.08q0.21,0,0.21,0.225t-0.27,0.525l-0.96,1.08q-0.81,0.84-1.8,1.62q-2.37,1.77-3.9,1.77z"/><path fill="#e52727" d="M86.1653,109.66q-1.8,0-3.03-0.825t-1.23-2.085q0-1.59,2.07-3.18q0.36-0.27,0.54-0.27t0.18,0.12q0,0.3-0.48,0.48q-1.68,1.35-1.68,2.73q0,0.99,0.9,1.665t2.25,0.675q2.94,0,5.55-2.82q1.35-1.47,1.35-3.39t-1.44-2.85q-1.2-0.84-3.24-0.84q-2.94,0-5.91,1.47q-3.66,1.77-6.615,5.505t-2.955,7.185q0,2.73,1.86,4.215t4.62,1.485q3.15,0,6.18-1.53q2.31-1.2,3.99-3.06q0.48-0.54,0.75-0.54q0.18,0,0.18,0.315t-0.33,0.645q-1.59,1.68-4.59,3.24q-3.69,1.95-7.425,1.95t-5.565-2.46q-1.23-1.62-1.23-3.87q0-0.99,0.24-2.13q0.81-3.84,4.26-7.47q2.49-2.61,5.91-4.065t6.48-1.455q1.62,0,2.82,0.39q3.27,1.02,3.27,4.11q0,1.89-1.11,3.27q-2.76,3.39-6.57,3.39z M103.0004,109.03l0.42-0.09q0.33,0,0.63,0.27t0.3,0.42t-1.86,2.895t-1.86,3.825q0,0.09,0.03,0.18q0.15,0.69,0.66,0.69q1.56,0,5.7-5.16q0.09-0.12,0.21-0.12t0.12,0.225t-0.27,0.585q-3.84,5.13-5.85,5.13q-0.27,0-0.51-0.09q-1.32-0.51-1.32-1.98q0-0.51,0.12-1.02l-1.86,1.8q-1.77,1.56-2.565,1.56t-1.515-0.51q-0.81-0.6-0.81-1.59q0-2.19,3.06-5.235t5.61-3.045q0.99,0,1.32,0.69q0.09,0.24,0.15,0.405t0.09,0.165z M94.0304,116.41q0,1.08,0.75,1.08q1.74,0,4.74-3.81l3.18-4.38q-0.24-0.42-0.78-0.42q-1.83,0-4.86,2.835t-3.03,4.695z M112.8455,118.15q-2.25,0-2.25-2.49q0-1.26,0.66-2.76t1.44-2.52q-0.15,0.03-0.39,0.03q-0.72,0-1.2-1.02l-2.22,2.88q-1.86,2.31-2.16,2.31q-0.15,0-0.15-0.12q0-0.3,0.51-0.87q2.61-3.03,3.69-5.13q0.69-2.61,1.74-2.61q0.69,0,0.69,0.6t-0.75,1.53l-0.72,0.96q0,0.63,0.93,0.63q0.54,0,1.2-0.39l0.78-0.48q0.06-0.03,0.3-0.03t0.51,0.3t0.18,0.54l-2.07,2.61q-1.92,2.46-1.92,3.885t1.32,1.425q1.38,0,3.39-1.47q1.2-0.87,2.19-1.95q0.93-1.08,1.02-1.08q0.21,0,0.21,0.225t-0.27,0.525l-0.96,1.08q-0.81,0.84-1.8,1.62q-2.37,1.77-3.9,1.77z M121.4006,118.39q-0.33,0-0.6-0.09q-1.92-0.54-1.92-2.16q0-2.1,2.64-4.86t4.74-2.76q0.69,0,1.125,0.375t0.435,0.915q0,1.68-2.535,3.21t-4.125,1.53q-0.24,0-0.42-0.06q-0.45,0.81-0.45,1.71q0,1.56,1.485,1.56t3.855-2.01q1.83-1.47,3.12-3.12q0.27-0.36,0.465-0.36t0.195,0.18t-0.24,0.51q-1.62,2.13-3.9,3.78t-3.87,1.65z M127.0706,109.75q0-0.36-0.765-0.36t-2.175,1.17q-1.89,1.56-2.94,3.27q0.18,0.06,0.39,0.06q1.14,0,3.045-1.215t2.385-2.655q0.06-0.15,0.06-0.27z M152.4008,109.66q-1.8,0-3.03-0.825t-1.23-2.085q0-1.59,2.07-3.18q0.36-0.27,0.54-0.27t0.18,0.12q0,0.3-0.48,0.48q-1.68,1.35-1.68,2.73q0,0.99,0.9,1.665t2.25,0.675q2.94,0,5.55-2.82q1.35-1.47,1.35-3.39t-1.44-2.85q-1.2-0.84-3.24-0.84q-2.94,0-5.91,1.47q-3.66,1.77-6.615,5.505t-2.955,7.185q0,2.73,1.86,4.215t4.62,1.485q3.15,0,6.18-1.53q2.31-1.2,3.99-3.06q0.48-0.54,0.75-0.54q0.18,0,0.18,0.315t-0.33,0.645q-1.59,1.68-4.59,3.24q-3.69,1.95-7.425,1.95t-5.565-2.46q-1.23-1.62-1.23-3.87q0-0.99,0.24-2.13q0.81-3.84,4.26-7.47q2.49-2.61,5.91-4.065t6.48-1.455q1.62,0,2.82,0.39q3.27,1.02,3.27,4.11q0,1.89-1.11,3.27q-2.76,3.39-6.57,3.39z M160.8059,118.39q-0.33,0-0.6-0.09q-1.92-0.54-1.92-2.16q0-2.1,2.64-4.86t4.74-2.76q0.69,0,1.125,0.375t0.435,0.915q0,1.68-2.535,3.21t-4.125,1.53q-0.24,0-0.42-0.06q-0.45,0.81-0.45,1.71q0,1.56,1.485,1.56t3.855-2.01q1.83-1.47,3.12-3.12q0.27-0.36,0.465-0.36t0.195,0.18t-0.24,0.51q-1.62,2.13-3.9,3.78t-3.87,1.65z M166.4759,109.75q0-0.36-0.765-0.36t-2.175,1.17q-1.89,1.56-2.94,3.27q0.18,0.06,0.39,0.06q1.14,0,3.045-1.215t2.385-2.655q0.06-0.15,0.06-0.27z M173.141,108.52q0.81,0,0.81,0.63q0,0.18-0.09,0.36q-2.7,3.75-3.24,5.67q6.99-6.99,8.49-6.99q0.15-0.03,0.27-0.03q0.84,0,0.84,0.75q0,0.15-0.06,0.3t-1.2,1.62q-1.32,1.56-2.235,3t-0.915,2.4t0.42,0.96q1.32,0,4.59-3.63q0.06-0.06,0.21-0.27q0.45-0.54,0.54-0.54t0.09,0.3t-0.42,0.78q-3.72,4.23-5.28,4.23q-1.47,0-1.47-1.62t1.2-3.72l1.92-3.12q-2.04,1.5-3.63,3.285t-2.895,3.465t-1.515,1.68q-0.45,0-0.705-0.375t-0.255-0.93t0.39-1.485t0.99-2.25l-1.8,1.89q-0.66,0.66-0.825,0.66t-0.165-0.195t0.24-0.435q1.11-1.11,1.92-2.13q0.78-1.02,3.21-3.9q0.27-0.36,0.57-0.36z M189.5561,108.34l4.32-0.06q0.09,0.06,0.09,0.09q0,0.27-3.735,0.75t-4.035,0.57q-0.57,0.51-2.1,3.045t-1.53,3.705q0,1.11,1.53,1.11q0.72,0,1.89-0.45t1.8-0.84q1.68-1.05,3.6-3.09q0.42-0.42,0.57-0.42q0.09,0,0.09,0.18t-0.45,0.72q-1.56,1.92-3.51,3.09q-2.34,1.44-4.47,1.44q-0.93,0-1.515-0.405t-0.585-1.635t1.08-3.375t1.65-3.195q-0.42,0.09-0.72,0.09q-0.87,0-0.87-0.69q0-0.51,0.72-0.72q0.09,0,0.27-0.03l1.74,0q0.54-0.69,1.23-1.59q0.84-1.08,1.14-1.08t0.75,0.24t0.45,0.57t-1.44,1.95q0.78,0.03,2.04,0.03z M193.4912,118.39q-0.33,0-0.6-0.09q-1.92-0.54-1.92-2.16q0-2.1,2.64-4.86t4.74-2.76q0.69,0,1.125,0.375t0.435,0.915q0,1.68-2.535,3.21t-4.125,1.53q-0.24,0-0.42-0.06q-0.45,0.81-0.45,1.71q0,1.56,1.485,1.56t3.855-2.01q1.83-1.47,3.12-3.12q0.27-0.36,0.465-0.36t0.195,0.18t-0.24,0.51q-1.62,2.13-3.9,3.78t-3.87,1.65z M199.1612,109.75q0-0.36-0.765-0.36t-2.175,1.17q-1.89,1.56-2.94,3.27q0.18,0.06,0.39,0.06q1.14,0,3.045-1.215t2.385-2.655q0.06-0.15,0.06-0.27z M207.1163,118.15q-2.25,0-2.25-2.49q0-1.26,0.66-2.76t1.44-2.52q-0.15,0.03-0.39,0.03q-0.72,0-1.2-1.02l-2.22,2.88q-1.86,2.31-2.16,2.31q-0.15,0-0.15-0.12q0-0.3,0.51-0.87q2.61-3.03,3.69-5.13q0.69-2.61,1.74-2.61q0.69,0,0.69,0.6t-0.75,1.53l-0.72,0.96q0,0.63,0.93,0.63q0.54,0,1.2-0.39l0.78-0.48q0.06-0.03,0.3-0.03t0.51,0.3t0.18,0.54l-2.07,2.61q-1.92,2.46-1.92,3.885t1.32,1.425q1.38,0,3.39-1.47q1.2-0.87,2.19-1.95q0.93-1.08,1.02-1.08q0.21,0,0.21,0.225t-0.27,0.525l-0.96,1.08q-0.81,0.84-1.8,1.62q-2.37,1.77-3.9,1.77z"/></svg>
